<svg xmlns="http://www.w3.org/2000/svg" height="24" viewBox="0 -960 960 960" width="24" fill="currentColor"><path d="m800-40 40 40-40 40-40-40-120-120-40 40-40-40 40-40 120-120ZM400-80q-83 0-156-31.5T117-197q-54-54-85.5-127T-40-480q0-83 31.5-156T117-763q34-34 71.5-59T280-853l-80-80 40-40 80 80 80-80 40 40-80 80 400 400 40-40 40 40-40 40-400-400-120 120-40 40 40-40 120-120q-17 48-43 93.5T160-480q0 58 23 108.5T256-296l-96 96q-53-54-82.5-106T-40-480q0-83 31.5-156T117-763q54-54 127-85.5T400-880q83 0 156 31.5T713-763q14 14 26 27l-80 80q-47-38-100-61T400-760q-58 0-108.5 23T216-664L664-216l-32-32-16 16ZM280-573l120 120-120 120-120-120 120-120Zm302-302L280-573l32-32 120 120 40-40-120-120-40 40Z"/></svg>